<?xml version="1.0" encoding="UTF-8" standalone="no"?>
<!DOCTYPE svg PUBLIC "-//W3C//DTD SVG 1.1//EN" "http://www.w3.org/Graphics/SVG/1.1/DTD/svg11.dtd">
<svg version="1.1" xmlns="http://www.w3.org/2000/svg" xmlns:xlink="http://www.w3.org/1999/xlink" preserveAspectRatio="xMidYMid meet" viewBox="0 0 640 640" width="640" height="640"><defs><path d="M332.77 0.25L338.99 0.56L345.21 1L351.41 1.56L357.59 2.25L363.75 3.06L369.9 3.99L376.02 5.04L382.11 6.21L388.18 7.5L394.23 8.91L400.24 10.44L406.23 12.09L412.18 13.86L418.1 15.74L423.98 17.74L429.83 19.86L435.63 22.09L441.4 24.44L447.13 26.9L452.81 29.48L458.44 32.17L464.03 34.97L469.57 37.88L475.06 40.91L480.5 44.04L485.88 47.29L491.21 50.65L496.49 54.11L501.7 57.68L506.85 61.37L511.95 65.15L516.97 69.05L521.94 73.05L526.83 77.16L531.66 81.37L536.42 85.69L541.11 90.11L545.72 94.63L550.24 99.24L554.67 103.93L558.98 108.68L563.2 113.5L567.31 118.39L571.31 123.34L575.2 128.36L578.99 133.44L582.68 138.58L586.25 143.78L589.71 149.04L593.07 154.36L596.32 159.73L599.45 165.15L602.48 170.63L605.39 176.16L608.19 181.74L610.88 187.37L613.46 193.04L615.92 198.77L618.27 204.53L620.5 210.34L622.61 216.19L624.61 222.08L626.5 228.01L628.26 233.98L629.91 239.99L631.44 246.03L632.85 252.1L634.15 258.2L635.32 264.34L636.37 270.5L637.3 276.69L638.1 282.91L638.79 289.15L639.35 295.42L639.79 301.71L640.1 308.02L640.29 314.35L640.35 320.7L640.3 326.59L640.13 332.46L639.86 338.31L639.49 344.15L639.01 349.97L638.42 355.77L637.72 361.54L636.92 367.3L636.02 373.03L635.01 378.74L633.9 384.42L632.68 390.07L631.36 395.7L629.94 401.3L628.42 406.87L626.8 412.4L625.07 417.91L623.25 423.38L621.32 428.82L619.3 434.22L617.17 439.59L614.95 444.92L612.63 450.21L610.21 455.46L607.7 460.67L605.08 465.83L602.37 470.96L599.57 476.04L596.67 481.07L593.68 486.06L590.59 491L587.4 495.89L584.13 500.73L580.76 505.52L577.29 510.26L573.74 514.95L570.09 519.58L566.35 524.16L562.53 528.68L558.61 533.14L597.02 571.55L402.46 610.46L441.37 415.9L478.84 453.37L481.19 450.54L483.48 447.67L485.72 444.77L487.9 441.83L490.03 438.87L492.1 435.88L494.12 432.86L496.08 429.8L497.98 426.73L499.83 423.62L501.62 420.48L503.36 417.32L505.03 414.14L506.65 410.93L508.21 407.69L509.72 404.43L511.16 401.15L512.55 397.84L513.88 394.52L515.15 391.17L516.36 387.8L517.51 384.41L518.6 381L519.63 377.57L520.6 374.13L521.51 370.67L522.36 367.19L523.14 363.69L523.87 360.18L524.53 356.65L525.14 353.11L525.68 349.56L526.15 345.99L526.57 342.41L526.92 338.82L527.21 335.21L527.43 331.6L527.59 327.98L527.69 324.34L527.72 320.7L527.68 316.6L527.56 312.51L527.35 308.43L527.07 304.36L526.7 300.31L526.26 296.27L525.73 292.25L525.13 288.25L524.45 284.26L523.68 280.29L522.84 276.34L521.93 272.41L520.93 268.5L519.86 264.61L518.71 260.75L517.48 256.91L516.18 253.09L514.8 249.3L513.35 245.54L511.82 241.8L510.22 238.1L508.55 234.42L506.8 230.77L504.97 227.15L503.08 223.56L501.11 220.01L499.07 216.49L496.96 213.01L494.77 209.56L492.52 206.14L490.19 202.77L487.8 199.43L485.33 196.13L482.8 192.87L480.19 189.65L477.52 186.47L474.78 183.34L471.97 180.25L469.09 177.2L466.15 174.2L463.21 171.32L460.22 168.5L457.18 165.74L454.1 163.06L450.97 160.43L447.8 157.88L444.59 155.39L441.34 152.98L438.04 150.63L434.7 148.34L431.33 146.13L427.91 143.99L424.46 141.92L420.97 139.91L417.44 137.98L413.88 136.12L410.29 134.33L406.66 132.61L403 130.96L399.31 129.39L395.59 127.89L391.84 126.46L388.06 125.11L384.25 123.83L380.42 122.62L376.56 121.49L372.67 120.44L368.76 119.46L364.83 118.55L360.87 117.73L356.89 116.98L352.89 116.3L348.88 115.71L344.84 115.19L340.79 114.75L336.71 114.39L332.63 114.11L328.52 113.91L324.4 113.79L320.27 113.75L301.52 113.75L301.52 0L320.27 0L326.52 0.06L332.77 0.25ZM343.38 77.44L347.71 77.88L352.03 78.39L356.33 78.99L360.61 79.66L364.87 80.4L369.11 81.21L373.33 82.1L377.53 83.07L381.71 84.1L385.86 85.21L389.99 86.4L394.09 87.65L398.17 88.98L402.22 90.38L406.25 91.85L410.25 93.39L414.21 95L418.15 96.68L422.06 98.43L425.94 100.25L429.78 102.15L433.6 104.11L437.38 106.13L441.12 108.23L444.83 110.4L448.51 112.63L452.15 114.93L455.75 117.3L459.31 119.73L462.83 122.23L466.32 124.8L469.76 127.43L473.16 130.13L476.53 132.89L479.84 135.72L483.12 138.61L486.35 141.57L489.53 144.59L492.67 147.68L496.14 151.21L499.53 154.8L502.84 158.45L506.07 162.14L509.22 165.89L512.29 169.68L515.28 173.53L518.19 177.42L521.01 181.36L523.75 185.34L526.41 189.37L528.98 193.44L531.47 197.55L533.87 201.71L536.19 205.9L538.43 210.13L540.57 214.41L542.63 218.71L544.61 223.06L546.5 227.44L548.3 231.85L550.01 236.3L551.63 240.77L553.16 245.28L554.61 249.82L555.96 254.38L557.23 258.98L558.4 263.6L559.48 268.24L560.47 272.91L561.37 277.6L562.18 282.32L562.89 287.05L563.51 291.81L564.03 296.58L564.46 301.37L564.8 306.18L565.04 311.01L565.18 315.85L565.23 320.7L565.18 325.55L565.04 330.39L564.8 335.22L564.46 340.02L564.03 344.82L563.51 349.59L562.89 354.35L562.18 359.08L561.37 363.79L560.47 368.49L559.48 373.16L558.4 377.8L557.23 382.42L555.96 387.01L554.61 391.58L553.16 396.12L551.63 400.62L550.01 405.1L548.3 409.55L546.5 413.96L544.61 418.34L542.63 422.68L540.57 426.99L538.43 431.26L536.19 435.5L533.87 439.69L531.47 443.85L528.98 447.96L526.41 452.03L523.75 456.06L521.01 460.04L518.19 463.98L515.28 467.87L512.29 471.72L509.22 475.51L506.07 479.26L502.84 482.95L499.53 486.6L496.14 490.19L492.67 493.72L479.41 506.98L464.4 491.98L450.27 562.65L520.94 548.51L505.93 533.5L519.19 520.24L527.38 511.74L535.14 503L542.48 494.05L549.41 484.9L555.91 475.56L561.99 466.04L567.66 456.35L572.9 446.51L577.73 436.53L582.13 426.42L586.12 416.18L589.69 405.84L592.84 395.41L595.56 384.89L597.87 374.3L599.76 363.65L601.23 352.96L602.28 342.22L602.91 331.47L603.12 320.7L602.91 309.93L602.28 299.18L601.23 288.44L599.76 277.75L597.87 267.1L595.56 256.51L592.84 245.99L589.69 235.55L586.12 225.21L582.13 214.98L577.73 204.87L572.9 194.88L567.66 185.04L561.99 175.36L555.91 165.84L549.41 156.5L542.48 147.34L535.14 138.4L527.38 129.66L519.19 121.15L515.46 117.49L511.68 113.9L507.85 110.39L503.97 106.95L500.04 103.59L496.06 100.31L492.03 97.11L487.96 93.99L483.85 90.95L479.69 87.99L475.48 85.11L471.24 82.31L466.95 79.58L462.62 76.95L458.26 74.39L453.85 71.91L449.41 69.52L444.93 67.21L440.42 64.98L435.87 62.84L431.28 60.78L426.67 58.8L422.02 56.91L417.34 55.11L412.63 53.39L407.89 51.76L403.13 50.21L398.33 48.75L393.51 47.38L388.67 46.09L383.8 44.89L378.91 43.79L373.99 42.77L369.05 41.83L364.09 40.99L359.12 40.24L354.12 39.58L349.11 39.01L344.07 38.53L339.03 38.14L339.03 77.07L343.38 77.44Z" id="d1035KqhbR"></path><path d="M161.73 188.06L156.77 194.23L152.09 200.54L147.67 206.99L143.53 213.57L139.66 220.27L136.05 227.07L132.72 233.98L129.66 240.99L126.86 248.08L124.34 255.25L122.09 262.49L120.11 269.79L118.4 277.14L116.96 284.55L115.79 291.99L114.89 299.46L114.26 306.96L113.9 314.47L113.81 321.99L113.99 329.5L114.44 337.01L115.17 344.5L116.16 351.96L117.42 359.39L118.95 366.78L120.76 374.12L122.83 381.4L125.18 388.62L127.79 395.76L130.68 402.82L133.83 409.8L137.26 416.67L140.95 423.44L144.92 430.1L149.16 436.63L153.66 443.04L158.44 449.3L163.49 455.42L168.8 461.39L174.39 467.2L177.33 470.08L180.32 472.9L183.36 475.66L186.44 478.35L189.57 480.97L192.74 483.52L195.95 486.01L199.21 488.43L202.5 490.78L205.84 493.06L209.22 495.28L212.63 497.42L216.08 499.49L219.57 501.5L223.1 503.43L226.66 505.3L230.25 507.09L233.88 508.81L237.54 510.46L241.23 512.03L244.95 513.53L248.71 514.96L252.49 516.32L256.29 517.6L260.13 518.81L263.99 519.94L267.88 520.99L271.79 521.97L275.72 522.88L279.67 523.71L283.65 524.46L287.65 525.13L291.67 525.73L295.71 526.24L299.76 526.68L303.83 527.04L307.92 527.32L312.02 527.53L316.14 527.65L320.27 527.69L339.03 527.69L339.03 640.15L320.27 640.15L313.9 640.09L307.54 639.9L301.2 639.59L294.89 639.16L288.6 638.61L282.34 637.93L276.11 637.14L269.9 636.22L263.73 635.18L257.59 634.03L251.48 632.75L245.4 631.36L239.36 629.85L233.36 628.22L227.39 626.48L221.47 624.62L215.58 622.65L209.74 620.56L203.95 618.36L198.2 616.04L192.49 613.61L186.83 611.07L181.23 608.42L175.67 605.65L170.17 602.78L164.72 599.79L159.32 596.7L153.98 593.5L148.7 590.18L143.48 586.76L138.32 583.24L133.22 579.6L128.19 575.87L123.21 572.02L118.31 568.07L113.47 564.02L108.71 559.86L104.01 555.6L99.38 551.23L94.83 546.77L86.03 537.62L77.67 528.21L69.74 518.56L62.24 508.67L55.18 498.56L48.56 488.24L42.37 477.73L36.61 467.05L31.29 456.19L26.41 445.18L21.96 434.02L17.94 422.74L14.36 411.35L11.21 399.85L8.5 388.27L6.22 376.61L4.38 364.88L2.97 353.11L1.99 341.3L1.45 329.47L1.35 317.63L1.68 305.79L2.44 293.97L3.64 282.18L5.28 270.43L7.35 258.74L9.85 247.11L12.79 235.57L16.16 224.13L19.97 212.79L24.21 201.57L28.89 190.49L34 179.56L39.54 168.79L45.53 158.19L51.94 147.78L58.79 137.57L66.08 127.58L73.79 117.81L81.95 108.28L43.52 69.85L238.09 30.94L199.17 225.5L161.73 188.06ZM134.61 107.89L121.35 121.15L113.31 129.53L105.67 138.16L98.45 147.01L91.64 156.09L85.25 165.38L79.27 174.86L73.7 184.52L68.54 194.35L63.79 204.33L59.46 214.46L55.54 224.71L52.03 235.08L48.94 245.56L46.26 256.12L43.99 266.77L42.13 277.48L40.69 288.24L39.65 299.04L39.04 309.86L38.83 320.7L39.04 331.54L39.65 342.36L40.69 353.16L42.13 363.92L43.99 374.63L46.26 385.27L48.94 395.84L52.03 406.31L55.54 416.68L59.46 426.94L63.79 437.07L68.54 447.05L73.7 456.88L79.27 466.54L85.25 476.02L91.64 485.3L98.45 494.38L105.67 503.24L113.31 511.86L121.35 520.24L125.03 523.86L128.77 527.4L132.55 530.86L136.39 534.24L140.28 537.55L144.22 540.79L148.21 543.94L152.25 547.02L156.34 550.02L160.47 552.94L164.65 555.78L168.87 558.54L173.14 561.22L177.45 563.82L181.8 566.34L186.2 568.78L190.63 571.14L195.1 573.42L199.61 575.61L204.16 577.73L208.75 579.75L213.37 581.7L218.02 583.56L222.71 585.34L227.43 587.03L232.18 588.64L236.97 590.16L241.78 591.6L246.62 592.95L251.49 594.22L256.39 595.4L261.31 596.49L266.26 597.49L271.23 598.41L276.23 599.23L281.24 599.97L286.28 600.62L291.34 601.18L296.42 601.65L301.52 602.03L301.52 564.33L297.17 563.96L292.83 563.52L288.52 563L284.22 562.41L279.94 561.74L275.68 561L271.43 560.18L267.21 559.29L263.02 558.33L258.84 557.29L254.69 556.18L250.56 555L246.45 553.74L242.37 552.42L238.32 551.02L234.3 549.55L230.3 548.01L226.33 546.4L222.39 544.71L218.49 542.96L214.61 541.14L210.76 539.25L206.95 537.29L203.17 535.26L199.42 533.17L195.71 531L192.04 528.77L188.4 526.47L184.8 524.1L181.24 521.67L177.71 519.17L174.23 516.6L170.78 513.97L167.38 511.27L164.02 508.51L160.7 505.68L157.43 502.79L154.2 499.83L151.01 496.81L147.87 493.72L140.91 486.48L134.31 479.01L128.07 471.34L122.18 463.48L116.65 455.44L111.48 447.22L106.66 438.85L102.2 430.33L98.09 421.67L94.35 412.89L90.96 404L87.92 395L85.25 385.91L82.93 376.74L80.96 367.51L79.36 358.22L78.11 348.88L77.22 339.5L76.68 330.11L76.5 320.7L76.68 311.3L77.21 301.9L78.11 292.53L79.36 283.19L80.96 273.9L82.92 264.66L85.24 255.5L87.92 246.41L90.95 237.41L94.34 228.51L98.09 219.73L102.19 211.07L106.65 202.55L111.47 194.18L116.65 185.97L122.18 177.92L128.07 170.06L134.31 162.39L140.91 154.93L147.87 147.68L161.13 134.42L176.14 149.42L190.28 78.75L119.6 92.89L134.61 107.89Z" id="c27DtDv3p1"></path><path d="M340.65 230.14L342.25 230.79L343.83 231.49L345.38 232.24L346.91 233.03L348.4 233.87L349.87 234.75L351.31 235.67L352.72 236.64L354.1 237.65L355.44 238.69L356.75 239.78L358.03 240.9L359.28 242.07L360.49 243.27L361.66 244.5L362.79 245.77L363.89 247.08L364.95 248.41L365.97 249.78L366.94 251.18L367.88 252.62L368.77 254.08L369.62 255.57L370.42 257.08L371.18 258.63L371.89 260.2L372.56 261.79L373.18 263.41L373.75 265.05L374.26 266.72L374.73 268.41L375.15 270.11L375.51 271.84L375.82 273.59L376.08 275.35L376.28 277.13L376.42 278.93L376.51 280.74L376.54 282.57L339.03 282.57L339.01 281.79L338.97 281.03L338.89 280.28L338.78 279.53L338.65 278.79L338.48 278.07L338.29 277.35L338.07 276.65L337.82 275.95L337.55 275.27L337.25 274.61L336.93 273.96L336.58 273.32L336.21 272.7L335.82 272.09L335.4 271.5L334.97 270.92L334.51 270.37L334.03 269.83L333.53 269.31L333.01 268.81L332.47 268.33L331.91 267.87L331.34 267.44L330.75 267.02L330.14 266.63L329.52 266.26L328.88 265.91L328.23 265.59L327.57 265.29L326.89 265.02L326.19 264.77L325.49 264.55L324.77 264.36L324.05 264.19L323.31 264.06L322.56 263.95L321.81 263.87L321.04 263.83L320.27 263.81L319.5 263.83L318.74 263.87L317.98 263.95L317.23 264.06L316.5 264.19L315.77 264.36L315.05 264.55L314.35 264.77L313.66 265.02L312.98 265.29L312.31 265.59L311.66 265.91L311.02 266.26L310.4 266.63L309.79 267.02L309.2 267.44L308.63 267.87L308.07 268.33L307.54 268.81L307.02 269.31L306.52 269.83L306.04 270.37L305.58 270.92L305.14 271.5L304.72 272.09L304.33 272.7L303.96 273.32L303.61 273.96L303.29 274.61L302.99 275.27L302.72 275.95L302.48 276.65L302.26 277.35L302.06 278.07L301.9 278.79L301.76 279.53L301.66 280.28L301.58 281.03L301.53 281.79L301.52 282.57L301.53 283.34L301.58 284.1L301.66 284.86L301.76 285.6L301.9 286.34L302.06 287.07L302.26 287.78L302.48 288.49L302.72 289.18L302.99 289.86L303.29 290.52L303.61 291.18L303.96 291.81L304.33 292.44L304.72 293.04L305.14 293.63L305.58 294.21L306.04 294.76L306.52 295.3L307.02 295.82L307.54 296.32L308.07 296.8L308.63 297.26L309.2 297.7L309.79 298.11L310.4 298.51L311.02 298.88L311.66 299.22L312.31 299.55L312.98 299.84L313.66 300.12L314.35 300.36L315.05 300.58L315.77 300.77L316.5 300.94L317.23 301.07L317.98 301.18L318.74 301.26L319.5 301.3L320.27 301.32L322.59 301.37L324.88 301.51L327.15 301.74L329.39 302.06L331.6 302.47L333.78 302.96L335.92 303.54L338.04 304.19L340.11 304.93L342.15 305.75L344.15 306.64L346.11 307.61L348.02 308.65L349.89 309.76L351.71 310.94L353.48 312.19L355.2 313.5L356.87 314.88L358.48 316.32L360.04 317.82L361.54 319.38L362.98 320.99L364.35 322.66L365.67 324.38L366.91 326.15L368.09 327.97L369.21 329.84L370.25 331.75L371.21 333.71L372.11 335.7L372.92 337.74L373.66 339.82L374.32 341.93L374.9 344.08L375.39 346.26L375.8 348.47L376.12 350.71L376.35 352.98L376.49 355.27L376.54 357.58L376.51 359.41L376.42 361.22L376.28 363.02L376.08 364.8L375.82 366.56L375.51 368.31L375.15 370.04L374.73 371.75L374.26 373.43L373.75 375.1L373.18 376.74L372.56 378.36L371.89 379.95L371.18 381.52L370.42 383.07L369.62 384.59L368.77 386.08L367.88 387.54L366.94 388.97L365.97 390.37L364.95 391.74L363.89 393.08L362.79 394.38L361.66 395.65L360.49 396.89L359.28 398.09L358.03 399.25L356.75 400.37L355.44 401.46L354.1 402.51L352.72 403.52L351.31 404.48L349.87 405.41L348.4 406.29L346.91 407.12L345.38 407.92L343.83 408.66L342.25 409.37L340.65 410.02L339.03 410.62L339.03 452.61L301.52 452.61L301.52 410.62L299.89 410.02L298.29 409.37L296.71 408.66L295.16 407.92L293.64 407.12L292.14 406.29L290.67 405.41L289.23 404.48L287.83 403.52L286.45 402.51L285.1 401.46L283.79 400.37L282.51 399.25L281.27 398.09L280.06 396.89L278.88 395.65L277.75 394.38L276.65 393.08L275.59 391.74L274.58 390.37L273.6 388.97L272.67 387.54L271.77 386.08L270.93 384.59L270.12 383.07L269.36 381.52L268.65 379.95L267.99 378.36L267.37 376.74L266.8 375.1L266.28 373.43L265.81 371.75L265.4 370.04L265.04 368.31L264.73 366.56L264.47 364.8L264.27 363.02L264.13 361.22L264.04 359.41L264.01 357.58L301.52 357.58L301.53 358.36L301.58 359.12L301.66 359.88L301.76 360.62L301.9 361.36L302.06 362.09L302.26 362.8L302.48 363.51L302.72 364.2L302.99 364.88L303.29 365.54L303.61 366.2L303.96 366.83L304.33 367.46L304.72 368.06L305.14 368.65L305.58 369.23L306.04 369.78L306.52 370.32L307.02 370.84L307.54 371.34L308.07 371.82L308.63 372.28L309.2 372.72L309.79 373.13L310.4 373.53L311.02 373.9L311.66 374.24L312.31 374.56L312.98 374.86L313.66 375.13L314.35 375.38L315.05 375.6L315.77 375.79L316.5 375.96L317.23 376.09L317.98 376.2L318.74 376.28L319.5 376.32L320.27 376.34L321.04 376.32L321.81 376.28L322.56 376.2L323.31 376.09L324.05 375.96L324.77 375.79L325.49 375.6L326.19 375.38L326.89 375.13L327.57 374.86L328.23 374.56L328.88 374.24L329.52 373.9L330.14 373.53L330.75 373.13L331.34 372.72L331.91 372.28L332.47 371.82L333.01 371.34L333.53 370.84L334.03 370.32L334.51 369.78L334.97 369.23L335.4 368.65L335.82 368.06L336.21 367.46L336.58 366.83L336.93 366.2L337.25 365.54L337.55 364.88L337.82 364.2L338.07 363.51L338.29 362.8L338.48 362.09L338.65 361.36L338.78 360.62L338.89 359.88L338.97 359.12L339.01 358.36L339.03 357.58L339.01 356.81L338.97 356.05L338.89 355.29L338.78 354.55L338.65 353.81L338.48 353.08L338.29 352.37L338.07 351.66L337.82 350.97L337.55 350.29L337.25 349.63L336.93 348.97L336.58 348.34L336.21 347.71L335.82 347.11L335.4 346.52L334.97 345.94L334.51 345.39L334.03 344.85L333.53 344.33L333.01 343.83L332.47 343.35L331.91 342.89L331.34 342.45L330.75 342.04L330.14 341.64L329.52 341.27L328.88 340.93L328.23 340.6L327.57 340.31L326.89 340.03L326.19 339.79L325.49 339.57L324.77 339.38L324.05 339.21L323.31 339.08L322.56 338.97L321.81 338.89L321.04 338.85L320.27 338.83L317.96 338.78L315.67 338.64L313.4 338.41L311.16 338.09L308.95 337.68L306.77 337.19L304.62 336.61L302.51 335.96L300.43 335.22L298.39 334.4L296.4 333.51L294.44 332.54L292.53 331.5L290.66 330.39L288.84 329.21L287.07 327.96L285.35 326.65L283.68 325.27L282.06 323.83L280.51 322.33L279.01 320.77L277.57 319.16L276.19 317.49L274.88 315.77L273.63 314L272.45 312.18L271.34 310.31L270.3 308.4L269.33 306.44L268.44 304.45L267.62 302.41L266.88 300.33L266.22 298.22L265.65 296.07L265.15 293.89L264.75 291.68L264.43 289.44L264.2 287.17L264.06 284.88L264.01 282.57L264.04 280.74L264.13 278.93L264.27 277.13L264.47 275.35L264.73 273.59L265.04 271.84L265.4 270.11L265.81 268.41L266.28 266.72L266.8 265.05L267.37 263.41L267.99 261.79L268.65 260.2L269.36 258.63L270.12 257.08L270.93 255.57L271.77 254.08L272.67 252.62L273.6 251.18L274.58 249.78L275.59 248.41L276.65 247.08L277.75 245.77L278.88 244.5L280.06 243.27L281.27 242.07L282.51 240.9L283.79 239.78L285.1 238.69L286.45 237.65L287.83 236.64L289.23 235.67L290.67 234.75L292.14 233.87L293.64 233.03L295.16 232.24L296.71 231.49L298.29 230.79L299.89 230.14L301.52 229.53L301.52 188.79L339.03 188.79L339.03 229.53L340.65 230.14Z" id="b1JgazNhsr"></path></defs><g><g><g><use xlink:href="#d1035KqhbR" opacity="1" fill="#0071bc" fill-opacity="1"></use><g><use xlink:href="#d1035KqhbR" opacity="1" fill-opacity="0" stroke="#000000" stroke-width="1" stroke-opacity="0"></use></g></g><g><use xlink:href="#c27DtDv3p1" opacity="1" fill="#0071bc" fill-opacity="1"></use><g><use xlink:href="#c27DtDv3p1" opacity="1" fill-opacity="0" stroke="#000000" stroke-width="1" stroke-opacity="0"></use></g></g><g><use xlink:href="#b1JgazNhsr" opacity="1" fill="#0071bc" fill-opacity="1"></use><g><use xlink:href="#b1JgazNhsr" opacity="1" fill-opacity="0" stroke="#000000" stroke-width="1" stroke-opacity="0"></use></g></g></g></g></svg>