<?xml version="1.0" encoding="UTF-8" standalone="no"?>
<!DOCTYPE svg PUBLIC "-//W3C//DTD SVG 1.1//EN" "http://www.w3.org/Graphics/SVG/1.1/DTD/svg11.dtd">
<svg version="1.1" xmlns="http://www.w3.org/2000/svg" xmlns:xlink="http://www.w3.org/1999/xlink" preserveAspectRatio="xMidYMid meet" viewBox="0 0 640 640" width="640" height="640"><defs><path d="M488.75 37.5L488.75 151.25L640 151.25L640 188.75L602.5 188.75L602.5 640L37.5 640L37.5 188.75L0 188.75L0 151.25L151.25 151.25L151.25 37.5L113.75 37.5L113.75 0L526.25 0L526.25 37.5L488.75 37.5ZM188.75 602.5L226.25 602.5L226.25 451.25L413.75 451.25L413.75 602.5L451.25 602.5L451.25 37.5L188.75 37.5L188.75 602.5ZM263.75 602.5L376.25 602.5L376.25 488.75L263.75 488.75L263.75 602.5ZM488.75 602.5L565 602.5L565 563.75L527.5 563.75L527.5 526.25L565 526.25L565 488.75L527.5 488.75L527.5 451.25L565 451.25L565 413.75L527.5 413.75L527.5 376.25L565 376.25L565 338.75L527.5 338.75L527.5 301.25L565 301.25L565 263.75L527.5 263.75L527.5 226.25L565 226.25L565 188.75L488.75 188.75L488.75 602.5ZM75 226.25L112.5 226.25L112.5 263.75L75 263.75L75 301.25L112.5 301.25L112.5 338.75L75 338.75L75 376.25L112.5 376.25L112.5 413.75L75 413.75L75 451.25L112.5 451.25L112.5 488.75L75 488.75L75 526.25L112.5 526.25L112.5 563.75L75 563.75L75 602.5L151.25 602.5L151.25 188.75L75 188.75L75 226.25Z" id="b1FBUTntlA"></path><path d="M338.75 413.75L338.75 376.25L413.75 376.25L413.75 413.75L338.75 413.75Z" id="b1lX6KUb9Y"></path><path d="M338.75 338.75L338.75 301.25L413.75 301.25L413.75 338.75L338.75 338.75Z" id="c2nLD6517t"></path><path d="M338.75 263.75L338.75 226.25L413.75 226.25L413.75 263.75L338.75 263.75Z" id="aqIzuh4ih"></path><path d="M338.75 188.75L338.75 151.25L413.75 151.25L413.75 188.75L338.75 188.75Z" id="f5eqDYDN1"></path><path d="M338.75 113.75L338.75 76.25L413.75 76.25L413.75 113.75L338.75 113.75Z" id="a41Fj30W7"></path><path d="M226.25 413.75L226.25 376.25L301.25 376.25L301.25 413.75L226.25 413.75Z" id="bRZRkde42"></path><path d="M226.25 338.75L226.25 301.25L301.25 301.25L301.25 338.75L226.25 338.75Z" id="jEUVLnaGb"></path><path d="M226.25 263.75L226.25 226.25L301.25 226.25L301.25 263.75L226.25 263.75Z" id="e1RUSt6Ypy"></path><path d="M226.25 188.75L226.25 151.25L301.25 151.25L301.25 188.75L226.25 188.75Z" id="a1ffamWvmt"></path><path d="M226.25 113.75L226.25 76.25L301.25 76.25L301.25 113.75L226.25 113.75Z" id="ezbLQvk89"></path></defs><g><g><g><use xlink:href="#b1FBUTntlA" opacity="1" fill="#0071bc" fill-opacity="1"></use><g><use xlink:href="#b1FBUTntlA" opacity="1" fill-opacity="0" stroke="#000000" stroke-width="1" stroke-opacity="0"></use></g></g><g><use xlink:href="#b1lX6KUb9Y" opacity="1" fill="#0071bc" fill-opacity="1"></use><g><use xlink:href="#b1lX6KUb9Y" opacity="1" fill-opacity="0" stroke="#000000" stroke-width="1" stroke-opacity="0"></use></g></g><g><use xlink:href="#c2nLD6517t" opacity="1" fill="#0071bc" fill-opacity="1"></use><g><use xlink:href="#c2nLD6517t" opacity="1" fill-opacity="0" stroke="#000000" stroke-width="1" stroke-opacity="0"></use></g></g><g><use xlink:href="#aqIzuh4ih" opacity="1" fill="#0071bc" fill-opacity="1"></use><g><use xlink:href="#aqIzuh4ih" opacity="1" fill-opacity="0" stroke="#000000" stroke-width="1" stroke-opacity="0"></use></g></g><g><use xlink:href="#f5eqDYDN1" opacity="1" fill="#0071bc" fill-opacity="1"></use><g><use xlink:href="#f5eqDYDN1" opacity="1" fill-opacity="0" stroke="#000000" stroke-width="1" stroke-opacity="0"></use></g></g><g><use xlink:href="#a41Fj30W7" opacity="1" fill="#0071bc" fill-opacity="1"></use><g><use xlink:href="#a41Fj30W7" opacity="1" fill-opacity="0" stroke="#000000" stroke-width="1" stroke-opacity="0"></use></g></g><g><use xlink:href="#bRZRkde42" opacity="1" fill="#0071bc" fill-opacity="1"></use><g><use xlink:href="#bRZRkde42" opacity="1" fill-opacity="0" stroke="#000000" stroke-width="1" stroke-opacity="0"></use></g></g><g><use xlink:href="#jEUVLnaGb" opacity="1" fill="#0071bc" fill-opacity="1"></use><g><use xlink:href="#jEUVLnaGb" opacity="1" fill-opacity="0" stroke="#000000" stroke-width="1" stroke-opacity="0"></use></g></g><g><use xlink:href="#e1RUSt6Ypy" opacity="1" fill="#0071bc" fill-opacity="1"></use><g><use xlink:href="#e1RUSt6Ypy" opacity="1" fill-opacity="0" stroke="#000000" stroke-width="1" stroke-opacity="0"></use></g></g><g><use xlink:href="#a1ffamWvmt" opacity="1" fill="#0071bc" fill-opacity="1"></use><g><use xlink:href="#a1ffamWvmt" opacity="1" fill-opacity="0" stroke="#000000" stroke-width="1" stroke-opacity="0"></use></g></g><g><use xlink:href="#ezbLQvk89" opacity="1" fill="#0071bc" fill-opacity="1"></use><g><use xlink:href="#ezbLQvk89" opacity="1" fill-opacity="0" stroke="#000000" stroke-width="1" stroke-opacity="0"></use></g></g></g></g></svg>