<?xml version="1.0" encoding="UTF-8" standalone="no"?>
<!DOCTYPE svg PUBLIC "-//W3C//DTD SVG 1.1//EN" "http://www.w3.org/Graphics/SVG/1.1/DTD/svg11.dtd">
<svg version="1.1" xmlns="http://www.w3.org/2000/svg" xmlns:xlink="http://www.w3.org/1999/xlink" preserveAspectRatio="xMidYMid meet" viewBox="0 0 640 640" width="640" height="640"><defs><path d="M0 338.03L0 0L641 0L641 338.03L0 338.03ZM87.15 300.47L86.25 298.53L85.3 296.61L84.31 294.71L83.27 292.84L82.19 290.99L81.07 289.17L79.91 287.37L78.71 285.6L77.47 283.85L76.19 282.14L74.87 280.45L73.51 278.79L72.12 277.16L70.69 275.57L69.23 274L67.73 272.46L66.19 270.96L64.63 269.49L63.02 268.06L61.39 266.66L59.73 265.29L58.03 263.97L56.31 262.67L54.55 261.42L52.77 260.2L50.96 259.02L49.12 257.89L47.26 256.79L45.37 255.73L43.45 254.71L41.51 253.74L39.55 252.81L37.56 251.92L37.56 300.47L87.15 300.47ZM126.22 40.74L125.14 43.88L123.99 46.98L122.75 50.05L121.43 53.08L120.05 56.06L118.58 59.01L117.05 61.91L115.44 64.78L113.77 67.59L112.02 70.36L110.21 73.09L108.34 75.77L106.4 78.4L104.39 80.98L102.32 83.5L100.2 85.98L98.01 88.4L95.77 90.77L93.46 93.08L91.11 95.34L88.7 97.54L86.23 99.68L83.72 101.76L81.15 103.78L78.54 105.74L75.88 107.63L73.17 109.46L70.42 111.23L67.62 112.93L64.79 114.56L61.91 116.12L58.99 117.61L56.03 119.04L53.04 120.39L50.01 121.66L46.94 122.87L43.85 124L40.72 125.05L37.56 126.02L37.56 212.01L40.72 212.98L43.85 214.04L46.94 215.16L50.01 216.37L53.03 217.64L56.03 218.99L58.99 220.41L61.9 221.91L64.78 223.47L67.62 225.1L70.42 226.8L73.17 228.56L75.88 230.39L78.54 232.29L81.15 234.25L83.72 236.26L86.23 238.35L88.69 240.49L91.1 242.68L93.46 244.94L95.76 247.25L98.01 249.62L100.19 252.05L102.32 254.52L104.39 257.05L106.39 259.63L108.33 262.26L110.21 264.93L112.02 267.66L113.77 270.43L115.44 273.25L117.05 276.11L118.58 279.02L120.05 281.96L121.43 284.95L122.75 287.98L123.98 291.05L125.14 294.15L126.22 297.29L127.22 300.47L513.78 300.47L514.78 297.29L515.86 294.15L517.01 291.05L518.25 287.98L519.57 284.95L520.95 281.96L522.42 279.02L523.95 276.11L525.56 273.25L527.23 270.43L528.98 267.66L530.79 264.94L532.66 262.26L534.6 259.63L536.61 257.05L538.68 254.52L540.8 252.05L542.99 249.63L545.23 247.26L547.54 244.94L549.89 242.69L552.3 240.49L554.77 238.35L557.28 236.27L559.85 234.25L562.46 232.29L565.12 230.39L567.83 228.56L570.58 226.8L573.38 225.1L576.21 223.47L579.09 221.91L582.01 220.41L584.97 218.99L587.96 217.64L590.99 216.36L594.06 215.16L597.15 214.03L600.28 212.98L603.44 212.01L603.44 126.02L600.28 125.04L597.15 123.99L594.06 122.86L590.99 121.66L587.97 120.39L584.97 119.04L582.01 117.61L579.1 116.12L576.22 114.56L573.38 112.93L570.58 111.23L567.83 109.46L565.12 107.63L562.46 105.74L559.85 103.78L557.28 101.76L554.77 99.68L552.31 97.54L549.9 95.34L547.54 93.09L545.24 90.77L542.99 88.41L540.81 85.98L538.68 83.51L536.61 80.98L534.61 78.4L532.67 75.77L530.79 73.09L528.98 70.37L527.23 67.6L525.56 64.78L523.95 61.92L522.42 59.01L520.95 56.06L519.57 53.08L518.25 50.05L517.02 46.98L515.86 43.88L514.78 40.74L513.78 37.56L127.22 37.56L126.22 40.74ZM597.55 254.71L595.63 255.73L593.74 256.79L591.88 257.89L590.04 259.02L588.23 260.2L586.45 261.42L584.69 262.67L582.97 263.97L581.27 265.29L579.61 266.66L577.98 268.06L576.37 269.49L574.81 270.96L573.27 272.46L571.77 274L570.31 275.57L568.88 277.16L567.49 278.79L566.13 280.45L564.81 282.14L563.53 283.85L562.29 285.6L561.09 287.37L559.93 289.17L558.81 290.99L557.73 292.84L556.69 294.71L555.7 296.61L554.75 298.53L553.85 300.47L603.44 300.47L603.44 251.92L601.45 252.81L599.49 253.74L597.55 254.71ZM554.75 39.5L555.7 41.42L556.69 43.32L557.73 45.19L558.81 47.04L559.93 48.86L561.09 50.66L562.29 52.43L563.53 54.17L564.81 55.89L566.13 57.58L567.49 59.24L568.88 60.86L570.31 62.46L571.77 64.03L573.27 65.56L574.81 67.06L576.37 68.53L577.98 69.97L579.61 71.37L581.27 72.73L582.97 74.06L584.69 75.35L586.45 76.61L588.23 77.83L590.04 79L591.88 80.14L593.74 81.24L595.63 82.3L597.55 83.31L599.49 84.29L601.45 85.22L603.44 86.11L603.44 37.56L553.85 37.56L554.75 39.5ZM37.56 86.11L39.55 85.22L41.51 84.29L43.45 83.31L45.37 82.3L47.26 81.24L49.12 80.14L50.96 79L52.77 77.83L54.55 76.61L56.31 75.35L58.03 74.06L59.73 72.73L61.39 71.37L63.02 69.97L64.63 68.53L66.19 67.06L67.73 65.56L69.23 64.03L70.69 62.46L72.12 60.86L73.51 59.24L74.87 57.58L76.19 55.89L77.47 54.17L78.71 52.43L79.91 50.66L81.07 48.86L82.19 47.04L83.27 45.19L84.31 43.32L85.3 41.42L86.25 39.5L87.15 37.56L37.56 37.56L37.56 86.11Z" id="gKtMX7y1t"></path><path d="M451.96 187.79L451.96 150.23L527.07 150.23L527.07 187.79L451.96 187.79Z" id="d2amyaluxs"></path><path d="M113.93 187.79L113.93 150.23L189.04 150.23L189.04 187.79L113.93 187.79Z" id="a1MzLvltPc"></path><path d="M328.19 75.43L331.97 75.81L335.71 76.35L339.4 77.03L343.04 77.85L346.62 78.81L350.15 79.91L353.61 81.14L357.01 82.51L360.35 84L363.61 85.61L366.81 87.35L369.92 89.2L372.96 91.17L375.92 93.26L378.79 95.45L381.57 97.75L384.27 100.15L386.86 102.65L389.37 105.25L391.77 107.94L394.06 110.72L396.26 113.6L398.34 116.55L400.31 119.59L402.16 122.71L403.9 125.9L405.52 129.16L407.01 132.5L408.37 135.9L409.6 139.37L410.7 142.89L411.66 146.48L412.49 150.11L413.17 153.8L413.7 157.54L414.08 161.32L414.32 165.15L414.4 169.01L414.32 172.88L414.08 176.7L413.7 180.49L413.17 184.22L412.49 187.91L411.66 191.55L410.7 195.13L409.6 198.66L408.37 202.13L407.01 205.53L405.52 208.86L403.9 212.13L402.16 215.32L400.31 218.44L398.34 221.48L396.26 224.43L394.06 227.3L391.77 230.09L389.37 232.78L386.86 235.38L384.27 237.88L381.57 240.28L378.79 242.58L375.92 244.77L372.96 246.85L369.92 248.82L366.81 250.68L363.61 252.41L360.35 254.03L357.01 255.52L353.61 256.88L350.15 258.12L346.62 259.21L343.04 260.18L339.4 261L335.71 261.68L331.97 262.21L328.19 262.6L324.36 262.83L320.5 262.91L316.64 262.83L312.81 262.6L309.03 262.21L305.29 261.68L301.6 261L297.96 260.18L294.38 259.21L290.85 258.12L287.39 256.88L283.99 255.52L280.65 254.03L277.39 252.41L274.19 250.68L271.08 248.82L268.04 246.85L265.08 244.77L262.21 242.58L259.43 240.28L256.73 237.88L254.14 235.38L251.63 232.78L249.23 230.09L246.94 227.3L244.74 224.43L242.66 221.48L240.69 218.44L238.84 215.32L237.1 212.13L235.48 208.86L233.99 205.53L232.63 202.13L231.4 198.66L230.3 195.13L229.34 191.55L228.51 187.91L227.83 184.22L227.3 180.49L226.92 176.7L226.68 172.88L226.6 169.01L226.68 165.15L226.92 161.32L227.3 157.54L227.83 153.8L228.51 150.11L229.34 146.48L230.3 142.89L231.4 139.37L232.63 135.9L233.99 132.5L235.48 129.16L237.1 125.9L238.84 122.71L240.69 119.59L242.66 116.55L244.74 113.6L246.94 110.72L249.23 107.94L251.63 105.25L254.14 102.65L256.73 100.15L259.43 97.75L262.21 95.45L265.08 93.26L268.04 91.17L271.08 89.2L274.19 87.35L277.39 85.61L280.65 84L283.99 82.51L287.39 81.14L290.85 79.91L294.38 78.81L297.96 77.85L301.6 77.03L305.29 76.35L309.03 75.81L312.81 75.43L316.64 75.2L320.5 75.12L324.36 75.2L328.19 75.43ZM315.89 112.86L313.62 113.09L311.37 113.41L309.16 113.82L306.98 114.32L304.83 114.89L302.71 115.55L300.63 116.29L298.59 117.11L296.59 118L294.63 118.97L292.72 120.02L290.85 121.13L289.02 122.31L287.25 123.56L285.53 124.88L283.86 126.25L282.24 127.69L280.68 129.2L279.18 130.75L277.74 132.37L276.36 134.04L275.05 135.76L273.8 137.54L272.61 139.36L271.5 141.23L270.46 143.15L269.49 145.1L268.6 147.11L267.78 149.15L267.04 151.23L266.38 153.34L265.8 155.49L265.31 157.67L264.9 159.89L264.58 162.13L264.35 164.4L264.21 166.7L264.16 169.01L264.21 171.33L264.35 173.63L264.58 175.9L264.9 178.14L265.31 180.35L265.8 182.54L266.38 184.69L267.04 186.8L267.78 188.88L268.6 190.92L269.49 192.92L270.46 194.88L271.5 196.8L272.61 198.67L273.8 200.49L275.05 202.26L276.36 203.99L277.74 205.66L279.18 207.27L280.68 208.83L282.24 210.33L283.86 211.77L285.53 213.15L287.25 214.47L289.02 215.72L290.85 216.9L292.72 218.01L294.63 219.05L296.59 220.02L298.59 220.92L300.63 221.74L302.71 222.47L304.83 223.13L306.98 223.71L309.16 224.2L311.37 224.61L313.62 224.93L315.89 225.16L318.18 225.3L320.5 225.35L322.82 225.3L325.11 225.16L327.38 224.93L329.63 224.61L331.84 224.2L334.02 223.71L336.17 223.13L338.29 222.47L340.37 221.74L342.41 220.92L344.41 220.02L346.37 219.05L348.28 218.01L350.15 216.9L351.98 215.72L353.75 214.47L355.47 213.15L357.14 211.77L358.76 210.33L360.32 208.83L361.82 207.27L363.26 205.66L364.64 203.99L365.95 202.26L367.2 200.49L368.39 198.67L369.5 196.8L370.54 194.88L371.51 192.92L372.4 190.92L373.22 188.88L373.96 186.8L374.62 184.69L375.2 182.54L375.69 180.35L376.1 178.14L376.42 175.9L376.65 173.63L376.79 171.33L376.84 169.01L376.79 166.7L376.65 164.4L376.42 162.13L376.1 159.89L375.69 157.67L375.2 155.49L374.62 153.34L373.96 151.23L373.22 149.15L372.4 147.11L371.51 145.1L370.54 143.15L369.5 141.23L368.39 139.36L367.2 137.54L365.95 135.76L364.64 134.04L363.26 132.37L361.82 130.75L360.32 129.2L358.76 127.69L357.14 126.25L355.47 124.88L353.75 123.56L351.98 122.31L350.15 121.13L348.28 120.02L346.37 118.97L344.41 118L342.41 117.11L340.37 116.29L338.29 115.55L336.17 114.89L334.02 114.32L331.84 113.82L329.63 113.41L327.38 113.09L325.11 112.86L322.82 112.72L320.5 112.68L318.18 112.72L315.89 112.86Z" id="b9qCSERk5S"></path><path d="M301.72 565.88L301.72 375.59L339.28 375.59L339.28 565.88L301.72 565.88Z" id="ge5bqOE4j"></path><path d="M226.6 528.32L226.6 375.59L264.16 375.59L264.16 528.32L226.6 528.32Z" id="b13A8i0mZo"></path><path d="M376.84 528.32L376.84 375.59L414.4 375.59L414.4 528.32L376.84 528.32Z" id="e2M0NmSyZw"></path><path d="M376.84 603.44L376.84 565.88L414.4 565.88L414.4 603.44L376.84 603.44Z" id="clIQfdl1u"></path><path d="M451.96 453.21L451.96 375.59L489.51 375.59L489.51 453.21L451.96 453.21Z" id="b2itAwVLQ"></path><path d="M451.96 528.32L451.96 490.77L489.51 490.77L489.51 528.32L451.96 528.32Z" id="a5OndbfQ"></path><path d="M301.72 641L301.72 603.44L339.28 603.44L339.28 641L301.72 641Z" id="g57ZirEIu1"></path><path d="M226.6 603.44L226.6 565.88L264.16 565.88L264.16 603.44L226.6 603.44Z" id="aig2nLXo"></path><path d="M151.49 453.21L151.49 375.59L189.04 375.59L189.04 453.21L151.49 453.21Z" id="e5uM1Ls2Ol"></path><path d="M151.49 528.32L151.49 490.77L189.04 490.77L189.04 528.32L151.49 528.32Z" id="a2Y0aPrObv"></path></defs><g><g><g><use xlink:href="#gKtMX7y1t" opacity="1" fill="#0071bc" fill-opacity="1"></use><g><use xlink:href="#gKtMX7y1t" opacity="1" fill-opacity="0" stroke="#000000" stroke-width="1" stroke-opacity="0"></use></g></g><g><use xlink:href="#d2amyaluxs" opacity="1" fill="#0071bc" fill-opacity="1"></use><g><use xlink:href="#d2amyaluxs" opacity="1" fill-opacity="0" stroke="#000000" stroke-width="1" stroke-opacity="0"></use></g></g><g><use xlink:href="#a1MzLvltPc" opacity="1" fill="#0071bc" fill-opacity="1"></use><g><use xlink:href="#a1MzLvltPc" opacity="1" fill-opacity="0" stroke="#000000" stroke-width="1" stroke-opacity="0"></use></g></g><g><use xlink:href="#b9qCSERk5S" opacity="1" fill="#0071bc" fill-opacity="1"></use><g><use xlink:href="#b9qCSERk5S" opacity="1" fill-opacity="0" stroke="#000000" stroke-width="1" stroke-opacity="0"></use></g></g><g><use xlink:href="#ge5bqOE4j" opacity="1" fill="#0071bc" fill-opacity="1"></use><g><use xlink:href="#ge5bqOE4j" opacity="1" fill-opacity="0" stroke="#000000" stroke-width="1" stroke-opacity="0"></use></g></g><g><use xlink:href="#b13A8i0mZo" opacity="1" fill="#0071bc" fill-opacity="1"></use><g><use xlink:href="#b13A8i0mZo" opacity="1" fill-opacity="0" stroke="#000000" stroke-width="1" stroke-opacity="0"></use></g></g><g><use xlink:href="#e2M0NmSyZw" opacity="1" fill="#0071bc" fill-opacity="1"></use><g><use xlink:href="#e2M0NmSyZw" opacity="1" fill-opacity="0" stroke="#000000" stroke-width="1" stroke-opacity="0"></use></g></g><g><use xlink:href="#clIQfdl1u" opacity="1" fill="#0071bc" fill-opacity="1"></use><g><use xlink:href="#clIQfdl1u" opacity="1" fill-opacity="0" stroke="#000000" stroke-width="1" stroke-opacity="0"></use></g></g><g><use xlink:href="#b2itAwVLQ" opacity="1" fill="#0071bc" fill-opacity="1"></use><g><use xlink:href="#b2itAwVLQ" opacity="1" fill-opacity="0" stroke="#000000" stroke-width="1" stroke-opacity="0"></use></g></g><g><use xlink:href="#a5OndbfQ" opacity="1" fill="#0071bc" fill-opacity="1"></use><g><use xlink:href="#a5OndbfQ" opacity="1" fill-opacity="0" stroke="#000000" stroke-width="1" stroke-opacity="0"></use></g></g><g><use xlink:href="#g57ZirEIu1" opacity="1" fill="#0071bc" fill-opacity="1"></use><g><use xlink:href="#g57ZirEIu1" opacity="1" fill-opacity="0" stroke="#000000" stroke-width="1" stroke-opacity="0"></use></g></g><g><use xlink:href="#aig2nLXo" opacity="1" fill="#0071bc" fill-opacity="1"></use><g><use xlink:href="#aig2nLXo" opacity="1" fill-opacity="0" stroke="#000000" stroke-width="1" stroke-opacity="0"></use></g></g><g><use xlink:href="#e5uM1Ls2Ol" opacity="1" fill="#0071bc" fill-opacity="1"></use><g><use xlink:href="#e5uM1Ls2Ol" opacity="1" fill-opacity="0" stroke="#000000" stroke-width="1" stroke-opacity="0"></use></g></g><g><use xlink:href="#a2Y0aPrObv" opacity="1" fill="#0071bc" fill-opacity="1"></use><g><use xlink:href="#a2Y0aPrObv" opacity="1" fill-opacity="0" stroke="#000000" stroke-width="1" stroke-opacity="0"></use></g></g></g></g></svg>