<?xml version="1.0" encoding="utf-8"?>
<!-- Generator: Adobe Illustrator 22.1.0, SVG Export Plug-In . SVG Version: 6.00 Build 0)  -->
<svg version="1.1" id="Слой_1" xmlns="http://www.w3.org/2000/svg" xmlns:xlink="http://www.w3.org/1999/xlink"
	 viewBox="0 0 576 320" style="enable-background:new 0 0 576 320;" xml:space="preserve">
<style type="text/css">
	.st0{fill:none;stroke:#cccccc;stroke-width:5;stroke-miterlimit:10;}
	.st1{fill:#cccccc;}
</style>
<rect x="63.4" y="78.3" transform="matrix(0.9816 -0.1908 0.1908 0.9816 -24.0062 58.2808)" class="st0" />
<g>
	<path class="st1" d="M115.5,237.4l-7.2-17.9l21.4-4.2c1.6-0.3,2.2-1.1,1.9-2.5l-3.5-18.1c-0.3-1.4-0.7-2.1-1.3-2.3
		c-0.6-0.2-1.6-0.1-3,0.1l-10.3,2c-1.5,0.3-2.9,0.4-4.3,0.5c-1.4,0-2.7-0.3-3.9-0.9c-1.2-0.6-2.3-1.6-3.1-3c-0.9-1.3-1.6-3.3-2-5.7
		l-6.6-33.8c-0.8-3.9-0.3-7.3,1.4-10c1.7-2.8,4.9-4.6,9.6-5.5l27.5-5.3l7,17.9l-22.5,4.4c-1.6,0.3-2.3,1.2-2,2.7l3.5,18.1
		c0.2,1,0.6,1.6,1.2,1.9c0.6,0.3,1.4,0.3,2.4,0.1l12.5-2.4c3.2-0.6,5.8-0.3,7.8,0.8c2,1.2,3.3,3.7,4.1,7.4l6.4,32.8
		c1.1,5.5,0.7,9.6-1.1,12.3s-5.5,4.6-11.2,5.7L115.5,237.4z"/>
	<path class="st1" d="M183.5,175.4l9.1,47l-19.4,3.8l-19.4-99.6l21-4.1l19,39.9l2.7-44.2l21.2-4.1l19.4,99.6l-19.4,3.8l-9.1-47
		l-4.9,42.3L183.5,175.4z"/>
	<path class="st1" d="M265.2,159.5l9.1,47l-19.4,3.8l-19.4-99.6l21-4.1l19,39.9l2.7-44.2l21.2-4.1l19.4,99.6l-19.4,3.8l-9.1-47
		l-4.9,42.3L265.2,159.5z"/>
	<path class="st1" d="M347.5,183.1l0.4,9.1l-14.3,2.8l-1-73.7l15.2-3l26.7,68.7l-14.3,2.8l-3-8.6L347.5,183.1z M346.9,171.5l6.6-1.3
		l-8.1-24.6L346.9,171.5z"/>
	<path class="st1" d="M373.2,122.4c-0.5-2.6-0.2-4.8,0.9-6.7c1.1-1.8,3.1-3,5.9-3.6l20.3-3.9l5,12.8l-15.6,3c-0.9,0.2-1.2,0.7-1,1.6
		l8.2,42.2c0.2,0.9,0.7,1.3,1.5,1.1l6.5-1.3l-5.5-28.1l13.8-2.7l8,41l-24.8,4.8c-4.1,0.8-7.2,0.5-9.1-0.9c-2-1.4-3.3-4-4.1-8
		L373.2,122.4z"/>
	<path class="st1" d="M419.9,104.4l14.2-2.8l13.8,71.2l-14.2,2.8L419.9,104.4z"/>
	<path class="st1" d="M471.8,168.1c-4.1,0.8-7.2,0.5-9.1-0.9c-2-1.4-3.3-4-4.1-8l-10-51.4c-0.5-2.8-0.2-5.1,1.1-6.9
		c1.3-1.8,3.1-3,5.5-3.4l18.7-3.6l5,12.8l-13.6,2.7c-0.9,0.2-1.2,0.7-1,1.6l8.1,41.9c0.2,0.9,0.7,1.3,1.5,1.1l13.6-2.7V165
		L471.8,168.1z"/>
</g>
<polygon class="st1" points="418,62.1 426.7,73.2 440.7,72.2 432.9,83.9 438.1,97 424.6,93.2 413.8,102.2 413.2,88.1 401.3,80.6 
	414.5,75.7 "/>
</svg>
