<?xml version="1.0" encoding="utf-8"?>
<!-- Generator: Adobe Illustrator 22.1.0, SVG Export Plug-In . SVG Version: 6.00 Build 0)  -->
<svg version="1.1" id="Слой_1" xmlns="http://www.w3.org/2000/svg" xmlns:xlink="http://www.w3.org/1999/xlink" x="0px" y="0px"
	 viewBox="0 0 68 68" style="enable-background:new 0 0 68 68;" xml:space="preserve">
<style type="text/css">
	.st0{fill:#0071BC;}
</style>
<g>
	<path class="st0" d="M12.3,51c-0.3,0-0.5-0.1-0.8-0.2c-0.7-0.4-1.3-1.4-1.1-2.4l2.7-10.2C6.5,36.5,2,31.1,2,24.7C2,17,8.6,11,17,11
		h14c5.9,0,11.3,3.4,13.7,8.6c0.2,0.5,0,1.1-0.5,1.3c-0.5,0.2-1.1,0-1.3-0.5C40.8,15.9,36.2,13,31,13H17C9.7,13,4,18.1,4,24.7
		c0,5.8,4.3,10.6,10.6,11.8c0.3,0,0.5,0.2,0.7,0.4c0.1,0.2,0.2,0.5,0.1,0.8l-2.9,11l11.9-10.6c0.2-0.2,0.4-0.1,0.7-0.1h1
		c0.6,0,1,0.4,1,1s-0.4,1-1,1h-0.6L13.3,50.8C13,51,12.7,51,12.3,51z"/>
	<path class="st0" d="M53.2,25c6.1,0,10.8,4,10.8,9.3c0,4.6-3.5,8.5-8.6,9.4c-0.6,0.1-1,0.4-1.3,0.9c-0.3,0.5-0.4,1-0.2,1.6l1.7,6.3
		l-8-7.1c-0.4-0.3-0.8-0.4-1.3-0.4h-5.4C34.8,45,30,40.5,30,35s4.8-10,10.7-10H53 M53.3,23H40.7c-7,0-12.7,5.4-12.7,12
		c0,6.6,5.7,12,12.7,12h5.4l11.2,10c0.1,0.1,0.2,0.1,0.3,0.1c0.4,0,0.9-0.7,0.8-1.2l-2.7-10.1C61.5,44.7,66,40.1,66,34.3
		C66,27.8,60.3,23,53.3,23L53.3,23z"/>
</g>
</svg>
