<?xml version="1.0" encoding="utf-8"?>
<!-- Generator: Adobe Illustrator 22.1.0, SVG Export Plug-In . SVG Version: 6.00 Build 0)  -->
<svg version="1.1" id="Слой_1" xmlns="http://www.w3.org/2000/svg" xmlns:xlink="http://www.w3.org/1999/xlink" x="0px" y="0px"
	 viewBox="0 0 68 68" style="enable-background:new 0 0 68 68;" xml:space="preserve">
<style type="text/css">
	.st0{fill:#0071BC;}
</style>
<g>
	<path class="st0" d="M34,66C16.4,66,2,51.6,2,34S16.4,2,34,2c17.6,0,32,14.4,32,32S51.6,66,34,66z M34,4C17.5,4,4,17.5,4,34
		s13.5,30,30,30s30-13.5,30-30S50.5,4,34,4z"/>
	<g>
		<path class="st0" d="M26.1,49c-0.3,0-0.5-0.1-0.7-0.3c-0.4-0.4-0.4-1,0-1.4l27.9-28c0.4-0.4,1-0.4,1.4,0c0.4,0.4,0.4,1,0,1.4
			l-27.9,28C26.6,48.9,26.3,49,26.1,49z"/>
		<path class="st0" d="M26.1,49c-0.3,0-0.5-0.1-0.7-0.3L13.3,36.6c-0.4-0.4-0.4-1,0-1.4c0.4-0.4,1-0.4,1.4,0l12.1,12.1
			c0.4,0.4,0.4,1,0,1.4C26.6,48.9,26.3,49,26.1,49z"/>
	</g>
</g>
</svg>
