<?xml version="1.0" encoding="utf-8"?>
<!-- Generator: Adobe Illustrator 22.1.0, SVG Export Plug-In . SVG Version: 6.00 Build 0)  -->
<svg version="1.1" id="Слой_1" xmlns="http://www.w3.org/2000/svg" xmlns:xlink="http://www.w3.org/1999/xlink" x="0px" y="0px"
	 viewBox="0 0 68 68" style="enable-background:new 0 0 68 68;" xml:space="preserve">
<style type="text/css">
	.st0{fill:#0071BC;}
</style>
<g>
	<path class="st0" d="M34,18c-14.4,0-29-2.7-29-8s14.6-8,29-8s29,2.7,29,8S48.4,18,34,18z M34,4C17.3,4,7,7.5,7,10s10.3,6,27,6
		s27-3.5,27-6S50.7,4,34,4z"/>
	<path class="st0" d="M34,66c-11.7,0-29-1.9-29-7c0-0.6,0.4-1,1-1s1,0.4,1,1c0,1.7,9.3,5,27,5s27-3.3,27-5c0-0.6,0.4-1,1-1
		s1,0.4,1,1C63,64.1,45.7,66,34,66z"/>
	<path class="st0" d="M34,56c-11.7,0-29-1.9-29-7c0-0.6,0.4-1,1-1s1,0.4,1,1c0,1.7,9.3,5,27,5s27-3.3,27-5c0-0.6,0.4-1,1-1
		s1,0.4,1,1C63,54.1,45.7,56,34,56z"/>
	<path class="st0" d="M34,46c-11.7,0-29-1.9-29-7c0-0.6,0.4-1,1-1s1,0.4,1,1c0,1.7,9.3,5,27,5s27-3.3,27-5c0-0.6,0.4-1,1-1
		s1,0.4,1,1C63,44.1,45.7,46,34,46z"/>
	<path class="st0" d="M34,36c-11.7,0-29-1.9-29-7c0-0.6,0.4-1,1-1s1,0.4,1,1c0,1.7,9.3,5,27,5s27-3.3,27-5c0-0.6,0.4-1,1-1
		s1,0.4,1,1C63,34.1,45.7,36,34,36z"/>
	<path class="st0" d="M34,27c-11.7,0-29-1.9-29-7c0-0.6,0.4-1,1-1s1,0.4,1,1c0,1.7,9.3,5,27,5s27-3.3,27-5c0-0.6,0.4-1,1-1
		s1,0.4,1,1C63,25.1,45.7,27,34,27z"/>
	<path class="st0" d="M62,60c-0.6,0-1-0.4-1-1V10c0-0.6,0.4-1,1-1s1,0.4,1,1v49C63,59.6,62.6,60,62,60z"/>
	<path class="st0" d="M6,60c-0.6,0-1-0.4-1-1V10c0-0.6,0.4-1,1-1s1,0.4,1,1v49C7,59.6,6.6,60,6,60z"/>
</g>
</svg>
