<?xml version="1.0" encoding="utf-8"?>
<!-- Generator: Adobe Illustrator 22.1.0, SVG Export Plug-In . SVG Version: 6.00 Build 0)  -->
<svg version="1.1" id="Слой_1" xmlns="http://www.w3.org/2000/svg" xmlns:xlink="http://www.w3.org/1999/xlink" x="0px" y="0px"
	 viewBox="0 0 68 68" style="enable-background:new 0 0 68 68;" xml:space="preserve">
<style type="text/css">
	.st0{fill:#0071BC;}
</style>
<g>
	<path class="st0" d="M65,54H3c-0.6,0-1-0.4-1-1V15c0-0.6,0.4-1,1-1h62c0.6,0,1,0.4,1,1v38C66,53.6,65.6,54,65,54z M4,52h60V16H4V52
		z"/>
	<path class="st0" d="M34,35c-0.2,0-0.4,0-0.5-0.1L3.4,16.7c-0.5-0.3-0.6-0.9-0.3-1.4C3.3,14.8,4,14.7,4.4,15l30.1,18.2
		c0.5,0.3,0.6,0.9,0.3,1.4C34.7,34.8,34.3,35,34,35z"/>
	<path class="st0" d="M34,35c-0.3,0-0.7-0.2-0.9-0.5c-0.3-0.5-0.1-1.1,0.3-1.4L63.4,15c0.5-0.3,1.1-0.1,1.4,0.3
		c0.3,0.5,0.1,1.1-0.3,1.4L34.5,34.9C34.4,35,34.2,35,34,35z"/>
</g>
</svg>
